<svg width="126" height="122" viewBox="0 0 126 122" fill="none" xmlns="http://www.w3.org/2000/svg">
<path d="M55.7878 4.01943C60.2713 1.52073 65.7287 1.52073 70.2122 4.01943L109.957 26.1693C114.65 28.7851 117.56 33.7372 117.56 39.1105V82.5155C117.56 87.8888 114.65 92.8409 109.957 95.4567L70.2122 117.607C65.7287 120.105 60.2713 120.105 55.7878 117.607L16.0434 95.4567C11.3498 92.8409 8.4404 87.8888 8.4404 82.5155V39.1105C8.4404 33.7372 11.3498 28.7851 16.0434 26.1693L55.7878 4.01943Z" fill="white"/>
<path d="M64.0076 110.846V62.4111C64.0076 61.3431 64.5754 60.3556 65.4984 59.8183L109.215 34.3717C111.215 33.2075 113.724 34.6503 113.724 36.9644V65.1727C113.724 66.312 113.079 67.3531 112.058 67.8597L92.6659 77.4879C91.6454 77.9945 91 79.0355 91 80.1749V100.371C91 101.508 90.357 102.548 89.3394 103.056L68.347 113.53C66.3524 114.525 64.0076 113.075 64.0076 110.846Z" fill="#010313"/>
<path d="M90.5 70.1477V52.9231C90.5 52.2231 90.8659 51.5741 91.4649 51.2118L106.965 41.8359C108.298 41.0297 110 41.9894 110 43.5472V62.301C110 63.0681 109.561 63.7677 108.87 64.1016L99.6863 68.5414L93.45 71.9076C92.1175 72.6269 90.5 71.6619 90.5 70.1477Z" fill="white"/>
</svg>
